<?xml version="1.0" encoding="UTF-8" standalone="no"?>
<svg
   height="155.31726pt"
   version="1.1"
   viewBox="0 0 445.39716 155.31726"
   width="445.39716pt"
   id="svg451"
   sodipodi:docname="tools.svg"
   inkscape:version="1.1.2 (0a00cf5339, 2022-02-04)"
   inkscape:export-filename="/home/luispedro/software/taskfarm/tools.png"
   inkscape:export-xdpi="299.92804"
   inkscape:export-ydpi="299.92804"
   xmlns:inkscape="http://www.inkscape.org/namespaces/inkscape"
   xmlns:sodipodi="http://sodipodi.sourceforge.net/DTD/sodipodi-0.dtd"
   xmlns:xlink="http://www.w3.org/1999/xlink"
   xmlns="http://www.w3.org/2000/svg"
   xmlns:svg="http://www.w3.org/2000/svg"
   xmlns:rdf="http://www.w3.org/1999/02/22-rdf-syntax-ns#"
   xmlns:cc="http://creativecommons.org/ns#"
   xmlns:dc="http://purl.org/dc/elements/1.1/">
  <sodipodi:namedview
     id="namedview453"
     pagecolor="#ffffff"
     bordercolor="#666666"
     borderopacity="1.0"
     inkscape:pageshadow="2"
     inkscape:pageopacity="0.0"
     inkscape:pagecheckerboard="0"
     inkscape:document-units="pt"
     showgrid="false"
     inkscape:zoom="0.5"
     inkscape:cx="333"
     inkscape:cy="3"
     inkscape:window-width="1920"
     inkscape:window-height="999"
     inkscape:window-x="0"
     inkscape:window-y="0"
     inkscape:window-maximized="1"
     inkscape:current-layer="svg451"
     fit-margin-top="2"
     fit-margin-left="2"
     fit-margin-right="2"
     fit-margin-bottom="2" />
  <metadata
     id="metadata2">
    <rdf:RDF>
      <cc:Work>
        <dc:type
           rdf:resource="http://purl.org/dc/dcmitype/StillImage" />
        <dc:date>2022-06-28T19:04:46.343895</dc:date>
        <dc:format>image/svg+xml</dc:format>
        <dc:creator>
          <cc:Agent>
            <dc:title>Matplotlib v3.4.3, https://matplotlib.org/</dc:title>
          </cc:Agent>
        </dc:creator>
      </cc:Work>
    </rdf:RDF>
  </metadata>
  <defs
     id="defs6">
    <style
       type="text/css"
       id="style4">*{stroke-linecap:butt;stroke-linejoin:round;}</style>
    <defs
       id="defs323">
      <path
         d="M 0,3 C 0.795609,3 1.55874,2.683901 2.12132,2.12132 2.683901,1.55874 3,0.795609 3,0 3,-0.795609 2.683901,-1.55874 2.12132,-2.12132 1.55874,-2.683901 0.795609,-3 0,-3 -0.795609,-3 -1.55874,-2.683901 -2.12132,-2.12132 -2.683901,-1.55874 -3,-0.795609 -3,0 -3,0.795609 -2.683901,1.55874 -2.12132,2.12132 -1.55874,2.683901 -0.795609,3 0,3 Z"
         id="m0bc4b15967"
         style="stroke:#cccccc" />
    </defs>
    <defs
       id="defs427">
      <path
         d="M 0,3 C 0.795609,3 1.55874,2.683901 2.12132,2.12132 2.683901,1.55874 3,0.795609 3,0 3,-0.795609 2.683901,-1.55874 2.12132,-2.12132 1.55874,-2.683901 0.795609,-3 0,-3 -0.795609,-3 -1.55874,-2.683901 -2.12132,-2.12132 -2.683901,-1.55874 -3,-0.795609 -3,0 -3,0.795609 -2.683901,1.55874 -2.12132,2.12132 -1.55874,2.683901 -0.795609,3 0,3 Z"
         id="m59fb89c847"
         style="stroke:#9467bd" />
    </defs>
    <defs
       id="defs404">
      <path
         d="M 0,3 C 0.795609,3 1.55874,2.683901 2.12132,2.12132 2.683901,1.55874 3,0.795609 3,0 3,-0.795609 2.683901,-1.55874 2.12132,-2.12132 1.55874,-2.683901 0.795609,-3 0,-3 -0.795609,-3 -1.55874,-2.683901 -2.12132,-2.12132 -2.683901,-1.55874 -3,-0.795609 -3,0 -3,0.795609 -2.683901,1.55874 -2.12132,2.12132 -1.55874,2.683901 -0.795609,3 0,3 Z"
         id="m2269b1b24b"
         style="stroke:#d62728" />
    </defs>
    <defs
       id="defs335">
      <path
         d="M 0,3 C 0.795609,3 1.55874,2.683901 2.12132,2.12132 2.683901,1.55874 3,0.795609 3,0 3,-0.795609 2.683901,-1.55874 2.12132,-2.12132 1.55874,-2.683901 0.795609,-3 0,-3 -0.795609,-3 -1.55874,-2.683901 -2.12132,-2.12132 -2.683901,-1.55874 -3,-0.795609 -3,0 -3,0.795609 -2.683901,1.55874 -2.12132,2.12132 -1.55874,2.683901 -0.795609,3 0,3 Z"
         id="m343a137b4c"
         style="stroke:#1f77b4" />
    </defs>
    <defs
       id="defs381">
      <path
         d="M 0,3 C 0.795609,3 1.55874,2.683901 2.12132,2.12132 2.683901,1.55874 3,0.795609 3,0 3,-0.795609 2.683901,-1.55874 2.12132,-2.12132 1.55874,-2.683901 0.795609,-3 0,-3 -0.795609,-3 -1.55874,-2.683901 -2.12132,-2.12132 -2.683901,-1.55874 -3,-0.795609 -3,0 -3,0.795609 -2.683901,1.55874 -2.12132,2.12132 -1.55874,2.683901 -0.795609,3 0,3 Z"
         id="m2b15dc5f18"
         style="stroke:#2ca02c" />
    </defs>
    <defs
       id="defs358">
      <path
         d="M 0,3 C 0.795609,3 1.55874,2.683901 2.12132,2.12132 2.683901,1.55874 3,0.795609 3,0 3,-0.795609 2.683901,-1.55874 2.12132,-2.12132 1.55874,-2.683901 0.795609,-3 0,-3 -0.795609,-3 -1.55874,-2.683901 -2.12132,-2.12132 -2.683901,-1.55874 -3,-0.795609 -3,0 -3,0.795609 -2.683901,1.55874 -2.12132,2.12132 -1.55874,2.683901 -0.795609,3 0,3 Z"
         id="m8bf20b00db"
         style="stroke:#ff7f0e" />
    </defs>
    <clipPath
       id="pbf667b3321-0">
      <rect
         height="82.024002"
         width="392.52802"
         x="60.352001"
         y="10.8"
         id="rect446-3" />
    </clipPath>
    <clipPath
       id="clipPath2643">
      <rect
         height="82.024002"
         width="392.52802"
         x="60.352001"
         y="10.8"
         id="rect2641" />
    </clipPath>
  </defs>
  <g
     id="line2d_1"
     transform="translate(-9.862937,32.074519)">
    <defs
       id="defs15">
      <path
         d="M 0,0 V 3.5"
         id="m5f4a20e4ca"
         style="stroke:#000000;stroke-width:0.8" />
    </defs>
    <g
       id="g19">
      <use
         style="stroke:#000000;stroke-width:0.8"
         x="63.149113"
         xlink:href="#m5f4a20e4ca"
         y="92.823997"
         id="use17"
         width="100%"
         height="100%" />
    </g>
  </g>
  <g
     id="text_1"
     transform="translate(-9.862937,32.074519)">
    <!-- 2008 -->
    <g
       transform="matrix(0.1,0,0,-0.1,50.424112,107.42244)"
       id="g35">
      <defs
         id="defs25">
        <path
           d="M 1228,531 H 3431 V 0 H 469 v 531 q 359,372 979,998 621,627 780,809 303,340 423,576 121,236 121,464 0,372 -261,606 -261,235 -680,235 -297,0 -627,-103 -329,-103 -704,-313 v 638 q 381,153 712,231 332,78 607,78 725,0 1156,-363 431,-362 431,-968 0,-288 -108,-546 -107,-257 -392,-607 -78,-91 -497,-524 Q 1991,1309 1228,531 Z"
           id="DejaVuSans-32"
           transform="scale(0.015625)" />
        <path
           d="m 2034,4250 q -487,0 -733,-480 -245,-479 -245,-1442 0,-959 245,-1439 246,-480 733,-480 491,0 736,480 246,480 246,1439 0,963 -246,1442 -245,480 -736,480 z m 0,500 q 785,0 1199,-621 414,-620 414,-1801 0,-1178 -414,-1799 -414,-620 -1199,-620 -784,0 -1198,620 -414,621 -414,1799 0,1181 414,1801 414,621 1198,621 z"
           id="DejaVuSans-30"
           transform="scale(0.015625)" />
        <path
           d="m 2034,2216 q -450,0 -708,-241 -257,-241 -257,-662 0,-422 257,-663 258,-241 708,-241 450,0 709,242 260,243 260,662 0,421 -258,662 -257,241 -711,241 z m -631,268 q -406,100 -633,378 -226,279 -226,679 0,559 398,884 399,325 1092,325 697,0 1094,-325 397,-325 397,-884 0,-400 -227,-679 -226,-278 -629,-378 456,-106 710,-416 255,-309 255,-755 Q 3634,634 3220,271 2806,-91 2034,-91 1263,-91 848,271 434,634 434,1313 q 0,446 256,755 257,310 713,416 z m -231,997 q 0,-362 226,-565 227,-203 636,-203 407,0 636,203 230,203 230,565 0,363 -230,566 -229,203 -636,203 -409,0 -636,-203 -226,-203 -226,-566 z"
           id="DejaVuSans-38"
           transform="scale(0.015625)" />
      </defs>
      <use
         xlink:href="#DejaVuSans-32"
         id="use27"
         x="0"
         y="0"
         width="100%"
         height="100%" />
      <use
         x="63.623047"
         xlink:href="#DejaVuSans-30"
         id="use29"
         y="0"
         width="100%"
         height="100%" />
      <use
         x="127.24609"
         xlink:href="#DejaVuSans-30"
         id="use31"
         y="0"
         width="100%"
         height="100%" />
      <use
         x="190.86914"
         xlink:href="#DejaVuSans-38"
         id="use33"
         y="0"
         width="100%"
         height="100%" />
    </g>
  </g>
  <g
     id="line2d_2"
     transform="translate(-9.862937,32.074519)">
    <g
       id="g41">
      <use
         style="stroke:#000000;stroke-width:0.8"
         x="114.78266"
         xlink:href="#m5f4a20e4ca"
         y="92.823997"
         id="use39"
         width="100%"
         height="100%" />
    </g>
  </g>
  <g
     id="text_2"
     transform="translate(-9.862937,32.074519)">
    <!-- 2010 -->
    <g
       transform="matrix(0.1,0,0,-0.1,102.05766,107.42244)"
       id="g55">
      <defs
         id="defs45">
        <path
           d="M 794,531 H 1825 V 4091 L 703,3866 v 575 l 1116,225 h 631 V 531 H 3481 V 0 H 794 Z"
           id="DejaVuSans-31"
           transform="scale(0.015625)" />
      </defs>
      <use
         xlink:href="#DejaVuSans-32"
         id="use47"
         x="0"
         y="0"
         width="100%"
         height="100%" />
      <use
         x="63.623047"
         xlink:href="#DejaVuSans-30"
         id="use49"
         y="0"
         width="100%"
         height="100%" />
      <use
         x="127.24609"
         xlink:href="#DejaVuSans-31"
         id="use51"
         y="0"
         width="100%"
         height="100%" />
      <use
         x="190.86914"
         xlink:href="#DejaVuSans-30"
         id="use53"
         y="0"
         width="100%"
         height="100%" />
    </g>
  </g>
  <g
     id="line2d_3"
     transform="translate(-9.862937,32.074519)">
    <g
       id="g61">
      <use
         style="stroke:#000000;stroke-width:0.8"
         x="166.34558"
         xlink:href="#m5f4a20e4ca"
         y="92.823997"
         id="use59"
         width="100%"
         height="100%" />
    </g>
  </g>
  <g
     id="text_3"
     transform="translate(-9.862937,32.074519)">
    <!-- 2012 -->
    <g
       transform="matrix(0.1,0,0,-0.1,153.62058,107.42244)"
       id="g72">
      <use
         xlink:href="#DejaVuSans-32"
         id="use64"
         x="0"
         y="0"
         width="100%"
         height="100%" />
      <use
         x="63.623047"
         xlink:href="#DejaVuSans-30"
         id="use66"
         y="0"
         width="100%"
         height="100%" />
      <use
         x="127.24609"
         xlink:href="#DejaVuSans-31"
         id="use68"
         y="0"
         width="100%"
         height="100%" />
      <use
         x="190.86914"
         xlink:href="#DejaVuSans-32"
         id="use70"
         y="0"
         width="100%"
         height="100%" />
    </g>
  </g>
  <g
     id="line2d_4"
     transform="translate(-9.862937,32.074519)">
    <g
       id="g78">
      <use
         style="stroke:#000000;stroke-width:0.8"
         x="217.97913"
         xlink:href="#m5f4a20e4ca"
         y="92.823997"
         id="use76"
         width="100%"
         height="100%" />
    </g>
  </g>
  <g
     id="text_4"
     transform="translate(-9.862937,32.074519)">
    <!-- 2014 -->
    <g
       transform="matrix(0.1,0,0,-0.1,205.25413,107.42244)"
       id="g92">
      <defs
         id="defs82">
        <path
           d="M 2419,4116 825,1625 h 1594 z m -166,550 h 794 V 1625 h 666 V 1100 H 3047 V 0 H 2419 V 1100 H 313 v 609 z"
           id="DejaVuSans-34"
           transform="scale(0.015625)" />
      </defs>
      <use
         xlink:href="#DejaVuSans-32"
         id="use84"
         x="0"
         y="0"
         width="100%"
         height="100%" />
      <use
         x="63.623047"
         xlink:href="#DejaVuSans-30"
         id="use86"
         y="0"
         width="100%"
         height="100%" />
      <use
         x="127.24609"
         xlink:href="#DejaVuSans-31"
         id="use88"
         y="0"
         width="100%"
         height="100%" />
      <use
         x="190.86914"
         xlink:href="#DejaVuSans-34"
         id="use90"
         y="0"
         width="100%"
         height="100%" />
    </g>
  </g>
  <g
     id="line2d_5"
     transform="translate(-9.862937,32.074519)">
    <g
       id="g98">
      <use
         style="stroke:#000000;stroke-width:0.8"
         x="269.54205"
         xlink:href="#m5f4a20e4ca"
         y="92.823997"
         id="use96"
         width="100%"
         height="100%" />
    </g>
  </g>
  <g
     id="text_5"
     transform="translate(-9.862937,32.074519)">
    <!-- 2016 -->
    <g
       transform="matrix(0.1,0,0,-0.1,256.81705,107.42244)"
       id="g112">
      <defs
         id="defs102">
        <path
           d="m 2113,2584 q -425,0 -674,-291 -248,-290 -248,-796 0,-503 248,-796 249,-292 674,-292 425,0 673,292 248,293 248,796 0,506 -248,796 -248,291 -673,291 z m 1253,1979 v -575 q -238,112 -480,171 -242,60 -480,60 -625,0 -955,-422 -329,-422 -376,-1275 184,272 462,417 279,145 613,145 703,0 1111,-427 408,-426 408,-1160 0,-719 -425,-1154 -425,-434 -1131,-434 -810,0 -1238,620 -428,621 -428,1799 0,1106 525,1764 525,658 1409,658 238,0 480,-47 242,-47 505,-140 z"
           id="DejaVuSans-36"
           transform="scale(0.015625)" />
      </defs>
      <use
         xlink:href="#DejaVuSans-32"
         id="use104"
         x="0"
         y="0"
         width="100%"
         height="100%" />
      <use
         x="63.623047"
         xlink:href="#DejaVuSans-30"
         id="use106"
         y="0"
         width="100%"
         height="100%" />
      <use
         x="127.24609"
         xlink:href="#DejaVuSans-31"
         id="use108"
         y="0"
         width="100%"
         height="100%" />
      <use
         x="190.86914"
         xlink:href="#DejaVuSans-36"
         id="use110"
         y="0"
         width="100%"
         height="100%" />
    </g>
  </g>
  <g
     id="line2d_6"
     transform="translate(-9.862937,32.074519)">
    <g
       id="g118">
      <use
         style="stroke:#000000;stroke-width:0.8"
         x="321.1756"
         xlink:href="#m5f4a20e4ca"
         y="92.823997"
         id="use116"
         width="100%"
         height="100%" />
    </g>
  </g>
  <g
     id="text_6"
     transform="translate(-9.862937,32.074519)">
    <!-- 2018 -->
    <g
       transform="matrix(0.1,0,0,-0.1,308.4506,107.42244)"
       id="g129">
      <use
         xlink:href="#DejaVuSans-32"
         id="use121"
         x="0"
         y="0"
         width="100%"
         height="100%" />
      <use
         x="63.623047"
         xlink:href="#DejaVuSans-30"
         id="use123"
         y="0"
         width="100%"
         height="100%" />
      <use
         x="127.24609"
         xlink:href="#DejaVuSans-31"
         id="use125"
         y="0"
         width="100%"
         height="100%" />
      <use
         x="190.86914"
         xlink:href="#DejaVuSans-38"
         id="use127"
         y="0"
         width="100%"
         height="100%" />
    </g>
  </g>
  <g
     id="line2d_7"
     transform="translate(-9.862937,32.074519)">
    <g
       id="g135">
      <use
         style="stroke:#000000;stroke-width:0.8"
         x="372.73853"
         xlink:href="#m5f4a20e4ca"
         y="92.823997"
         id="use133"
         width="100%"
         height="100%" />
    </g>
  </g>
  <g
     id="text_7"
     transform="translate(-9.862937,32.074519)">
    <!-- 2020 -->
    <g
       transform="matrix(0.1,0,0,-0.1,360.01351,107.42244)"
       id="g146">
      <use
         xlink:href="#DejaVuSans-32"
         id="use138"
         x="0"
         y="0"
         width="100%"
         height="100%" />
      <use
         x="63.623047"
         xlink:href="#DejaVuSans-30"
         id="use140"
         y="0"
         width="100%"
         height="100%" />
      <use
         x="127.24609"
         xlink:href="#DejaVuSans-32"
         id="use142"
         y="0"
         width="100%"
         height="100%" />
      <use
         x="190.86914"
         xlink:href="#DejaVuSans-30"
         id="use144"
         y="0"
         width="100%"
         height="100%" />
    </g>
  </g>
  <g
     id="line2d_8"
     transform="translate(-9.862937,32.074519)">
    <g
       id="g152">
      <use
         style="stroke:#000000;stroke-width:0.8"
         x="424.37207"
         xlink:href="#m5f4a20e4ca"
         y="92.823997"
         id="use150"
         width="100%"
         height="100%" />
    </g>
  </g>
  <g
     id="text_8"
     transform="translate(-9.862937,32.074519)">
    <!-- 2022 -->
    <g
       transform="matrix(0.1,0,0,-0.1,411.64706,107.42244)"
       id="g163">
      <use
         xlink:href="#DejaVuSans-32"
         id="use155"
         x="0"
         y="0"
         width="100%"
         height="100%" />
      <use
         x="63.623047"
         xlink:href="#DejaVuSans-30"
         id="use157"
         y="0"
         width="100%"
         height="100%" />
      <use
         x="127.24609"
         xlink:href="#DejaVuSans-32"
         id="use159"
         y="0"
         width="100%"
         height="100%" />
      <use
         x="190.86914"
         xlink:href="#DejaVuSans-32"
         id="use161"
         y="0"
         width="100%"
         height="100%" />
    </g>
  </g>
  <g
     transform="matrix(0.1,0,0,-0.1,234.80228,153.17508)"
     id="g181">
    <defs
       id="defs171">
      <path
         d="M 1259,4147 V 519 h 763 q 966,0 1414,437 448,438 448,1382 0,937 -448,1373 -448,436 -1414,436 z m -631,519 h 1297 q 1356,0 1990,-564 635,-564 635,-1764 Q 4550,1131 3912,565 3275,0 1925,0 H 628 Z"
         id="DejaVuSans-44"
         transform="scale(0.015625)" />
      <path
         d="m 2194,1759 q -697,0 -966,-159 -269,-159 -269,-544 0,-306 202,-486 202,-179 548,-179 479,0 768,339 289,339 289,901 v 128 z m 1147,238 V 0 H 2766 V 531 Q 2569,213 2275,61 1981,-91 1556,-91 q -537,0 -855,302 -317,302 -317,808 0,590 395,890 396,300 1180,300 h 807 v 57 q 0,397 -261,614 -261,217 -733,217 -300,0 -585,-72 -284,-72 -546,-216 v 532 q 315,122 612,182 297,61 578,61 760,0 1135,-394 375,-393 375,-1193 z"
         id="DejaVuSans-61"
         transform="scale(0.015625)" />
      <path
         d="M 1172,4494 V 3500 H 2356 V 3053 H 1172 V 1153 q 0,-428 117,-550 117,-122 477,-122 h 590 V 0 H 1766 Q 1100,0 847,248 594,497 594,1153 V 3053 H 172 v 447 h 422 v 994 z"
         id="DejaVuSans-74"
         transform="scale(0.015625)" />
      <path
         d="M 3597,1894 V 1613 H 953 q 38,-594 358,-905 320,-311 892,-311 331,0 642,81 311,81 618,244 V 178 Q 3153,47 2828,-22 2503,-91 2169,-91 1331,-91 842,396 353,884 353,1716 q 0,859 464,1363 464,505 1252,505 706,0 1117,-455 411,-454 411,-1235 z m -575,169 q -6,471 -264,752 -258,282 -683,282 -481,0 -770,-272 -289,-272 -333,-766 z"
         id="DejaVuSans-65"
         transform="scale(0.015625)" />
    </defs>
    <use
       xlink:href="#DejaVuSans-44"
       id="use173"
       x="0"
       y="0"
       width="100%"
       height="100%" />
    <use
       x="77.001953"
       xlink:href="#DejaVuSans-61"
       id="use175"
       y="0"
       width="100%"
       height="100%" />
    <use
       x="138.28125"
       xlink:href="#DejaVuSans-74"
       id="use177"
       y="0"
       width="100%"
       height="100%" />
    <use
       x="177.49023"
       xlink:href="#DejaVuSans-65"
       id="use179"
       y="0"
       width="100%"
       height="100%" />
  </g>
  <g
     id="line2d_9"
     transform="translate(-9.862937,26.074519)">
    <defs
       id="defs186">
      <path
         d="M 0,0 H -3.5"
         id="m46648572ce"
         style="stroke:#000000;stroke-width:0.8" />
    </defs>
    <g
       id="g190">
      <use
         style="stroke:#000000;stroke-width:0.8"
         x="60.352001"
         xlink:href="#m46648572ce"
         y="89.095634"
         id="use188"
         width="100%"
         height="100%" />
    </g>
  </g>
  <g
     id="text_10"
     transform="translate(-9.862937,26.074519)">
    <!-- SemiBin -->
    <g
       transform="matrix(0.1,0,0,-0.1,12.355125,92.894855)"
       id="g214">
      <defs
         id="defs198">
        <path
           d="m 3425,4513 v -616 q -359,172 -678,256 -319,85 -616,85 -515,0 -795,-200 -280,-200 -280,-569 0,-310 186,-468 186,-157 705,-254 l 381,-78 q 706,-135 1042,-474 336,-339 336,-907 0,-679 -455,-1029 -454,-350 -1332,-350 -331,0 -705,75 -373,75 -773,222 v 650 q 384,-215 753,-325 369,-109 725,-109 540,0 834,212 294,213 294,607 0,343 -211,537 -211,194 -692,291 l -385,75 q -706,140 -1022,440 -315,300 -315,835 0,619 436,975 436,356 1201,356 329,0 669,-60 341,-59 697,-177 z"
           id="DejaVuSans-53"
           transform="scale(0.015625)" />
        <path
           d="m 3328,2828 q 216,388 516,572 300,184 706,184 547,0 844,-383 297,-382 297,-1088 V 0 h -578 v 2094 q 0,503 -179,746 -178,244 -543,244 -447,0 -707,-297 -259,-296 -259,-809 V 0 h -578 v 2094 q 0,506 -178,748 -178,242 -550,242 -441,0 -701,-298 -259,-298 -259,-808 V 0 H 581 v 3500 h 578 v -544 q 197,322 472,475 275,153 653,153 382,0 649,-194 267,-193 395,-562 z"
           id="DejaVuSans-6d"
           transform="scale(0.015625)" />
        <path
           d="m 603,3500 h 575 V 0 H 603 Z m 0,1363 h 575 V 4134 H 603 Z"
           id="DejaVuSans-69"
           transform="scale(0.015625)" />
        <path
           d="M 1259,2228 V 519 h 1013 q 509,0 754,211 246,211 246,645 0,438 -246,645 -245,208 -754,208 z m 0,1919 V 2741 h 935 q 462,0 688,173 227,174 227,530 0,353 -227,528 -226,175 -688,175 z m -631,519 h 1613 q 722,0 1112,-300 391,-300 391,-853 0,-429 -200,-682 -200,-253 -588,-315 466,-100 724,-418 258,-317 258,-792 0,-625 -425,-966 Q 3088,0 2303,0 H 628 Z"
           id="DejaVuSans-42"
           transform="scale(0.015625)" />
        <path
           d="M 3513,2113 V 0 h -575 v 2094 q 0,497 -194,743 -194,247 -581,247 -466,0 -735,-297 -269,-296 -269,-809 V 0 H 581 v 3500 h 578 v -544 q 207,316 486,472 280,156 646,156 603,0 912,-373 310,-373 310,-1098 z"
           id="DejaVuSans-6e"
           transform="scale(0.015625)" />
      </defs>
      <use
         xlink:href="#DejaVuSans-53"
         id="use200"
         x="0"
         y="0"
         width="100%"
         height="100%" />
      <use
         x="63.476562"
         xlink:href="#DejaVuSans-65"
         id="use202"
         y="0"
         width="100%"
         height="100%" />
      <use
         x="125"
         xlink:href="#DejaVuSans-6d"
         id="use204"
         y="0"
         width="100%"
         height="100%" />
      <use
         x="222.41211"
         xlink:href="#DejaVuSans-69"
         id="use206"
         y="0"
         width="100%"
         height="100%" />
      <use
         x="250.19531"
         xlink:href="#DejaVuSans-42"
         id="use208"
         y="0"
         width="100%"
         height="100%" />
      <use
         x="318.79883"
         xlink:href="#DejaVuSans-69"
         id="use210"
         y="0"
         width="100%"
         height="100%" />
      <use
         x="346.58203"
         xlink:href="#DejaVuSans-6e"
         id="use212"
         y="0"
         width="100%"
         height="100%" />
    </g>
  </g>
  <g
     id="line2d_10"
     transform="translate(-9.862937,26.074519)">
    <g
       id="g220">
      <use
         style="stroke:#000000;stroke-width:0.8"
         x="60.352001"
         xlink:href="#m46648572ce"
         y="70.453819"
         id="use218"
         width="100%"
         height="100%" />
    </g>
  </g>
  <g
     id="text_11"
     transform="translate(-9.862937,26.074519)">
    <!-- Macrel -->
    <g
       transform="matrix(0.1,0,0,-0.1,20.280125,74.253037)"
       id="g241">
      <defs
         id="defs227">
        <path
           d="m 628,4666 h 941 L 2759,1491 3956,4666 h 941 V 0 H 4281 V 4097 L 3078,897 H 2444 L 1241,4097 V 0 H 628 Z"
           id="DejaVuSans-4d"
           transform="scale(0.015625)" />
        <path
           d="m 3122,3366 v -538 q -244,135 -489,202 -245,67 -495,67 -560,0 -870,-355 -309,-354 -309,-995 0,-641 309,-996 310,-354 870,-354 250,0 495,67 245,67 489,202 V 134 Q 2881,22 2623,-34 2366,-91 2075,-91 1284,-91 818,406 353,903 353,1747 q 0,856 470,1346 471,491 1290,491 265,0 518,-55 253,-54 491,-163 z"
           id="DejaVuSans-63"
           transform="scale(0.015625)" />
        <path
           d="m 2631,2963 q -97,56 -211,82 -114,27 -251,27 -488,0 -749,-317 -261,-317 -261,-911 V 0 H 581 v 3500 h 578 v -544 q 182,319 472,473 291,155 707,155 59,0 131,-8 72,-7 159,-23 z"
           id="DejaVuSans-72"
           transform="scale(0.015625)" />
        <path
           d="m 603,4863 h 575 V 0 H 603 Z"
           id="DejaVuSans-6c"
           transform="scale(0.015625)" />
      </defs>
      <use
         xlink:href="#DejaVuSans-4d"
         id="use229"
         x="0"
         y="0"
         width="100%"
         height="100%" />
      <use
         x="86.279297"
         xlink:href="#DejaVuSans-61"
         id="use231"
         y="0"
         width="100%"
         height="100%" />
      <use
         x="147.55859"
         xlink:href="#DejaVuSans-63"
         id="use233"
         y="0"
         width="100%"
         height="100%" />
      <use
         x="202.53906"
         xlink:href="#DejaVuSans-72"
         id="use235"
         y="0"
         width="100%"
         height="100%" />
      <use
         x="241.40234"
         xlink:href="#DejaVuSans-65"
         id="use237"
         y="0"
         width="100%"
         height="100%" />
      <use
         x="302.92578"
         xlink:href="#DejaVuSans-6c"
         id="use239"
         y="0"
         width="100%"
         height="100%" />
    </g>
  </g>
  <g
     id="line2d_11"
     transform="translate(-9.862937,26.074519)">
    <g
       id="g247">
      <use
         style="stroke:#000000;stroke-width:0.8"
         x="60.352001"
         xlink:href="#m46648572ce"
         y="51.812"
         id="use245"
         width="100%"
         height="100%" />
    </g>
  </g>
  <g
     id="text_12"
     transform="translate(-9.862937,26.074519)">
    <!-- NGLess -->
    <g
       transform="matrix(0.1,0,0,-0.1,16.153562,55.611219)"
       id="g268">
      <defs
         id="defs254">
        <path
           d="m 628,4666 h 850 L 3547,763 v 3903 h 612 V 0 H 3309 L 1241,3903 V 0 H 628 Z"
           id="DejaVuSans-4e"
           transform="scale(0.015625)" />
        <path
           d="M 3809,666 V 1919 H 2778 v 519 H 4434 V 434 Q 4069,175 3628,42 3188,-91 2688,-91 1594,-91 976,548 359,1188 359,2328 q 0,1144 617,1783 618,639 1712,639 456,0 867,-113 411,-112 758,-331 v -672 q -350,297 -744,447 -394,150 -828,150 -857,0 -1287,-478 -429,-478 -429,-1425 0,-944 429,-1422 430,-478 1287,-478 334,0 596,58 263,58 472,180 z"
           id="DejaVuSans-47"
           transform="scale(0.015625)" />
        <path
           d="m 628,4666 h 631 V 531 H 3531 V 0 H 628 Z"
           id="DejaVuSans-4c"
           transform="scale(0.015625)" />
        <path
           d="m 2834,3397 v -544 q -243,125 -506,187 -262,63 -544,63 -428,0 -642,-131 -214,-131 -214,-394 0,-200 153,-314 153,-114 616,-217 l 197,-44 q 612,-131 870,-370 258,-239 258,-667 0,-488 -386,-773 Q 2250,-91 1575,-91 1294,-91 989,-36 684,19 347,128 v 594 q 319,-166 628,-249 309,-82 613,-82 406,0 624,139 219,139 219,392 0,234 -158,359 -157,125 -692,241 l -200,47 q -534,112 -772,345 -237,233 -237,639 0,494 350,762 350,269 994,269 318,0 599,-47 282,-46 519,-140 z"
           id="DejaVuSans-73"
           transform="scale(0.015625)" />
      </defs>
      <use
         xlink:href="#DejaVuSans-4e"
         id="use256"
         x="0"
         y="0"
         width="100%"
         height="100%" />
      <use
         x="74.804688"
         xlink:href="#DejaVuSans-47"
         id="use258"
         y="0"
         width="100%"
         height="100%" />
      <use
         x="152.29492"
         xlink:href="#DejaVuSans-4c"
         id="use260"
         y="0"
         width="100%"
         height="100%" />
      <use
         x="206.25781"
         xlink:href="#DejaVuSans-65"
         id="use262"
         y="0"
         width="100%"
         height="100%" />
      <use
         x="267.78125"
         xlink:href="#DejaVuSans-73"
         id="use264"
         y="0"
         width="100%"
         height="100%" />
      <use
         x="319.88086"
         xlink:href="#DejaVuSans-73"
         id="use266"
         y="0"
         width="100%"
         height="100%" />
    </g>
  </g>
  <g
     id="line2d_12"
     transform="translate(-9.862937,26.074519)">
    <g
       id="g274">
      <use
         style="stroke:#000000;stroke-width:0.8"
         x="60.352001"
         xlink:href="#m46648572ce"
         y="33.170181"
         id="use272"
         width="100%"
         height="100%" />
    </g>
  </g>
  <g
     id="text_13"
     transform="translate(-9.862937,26.074519)">
    <!-- Jug -->
    <g
       transform="matrix(0.1,0,0,-0.1,37.716062,36.969401)"
       id="g288">
      <defs
         id="defs280">
        <path
           d="m 628,4666 h 631 V 325 q 0,-844 -320,-1225 -320,-381 -1030,-381 h -240 v 531 h 197 q 418,0 590,235 172,234 172,840 z"
           id="DejaVuSans-4a"
           transform="scale(0.015625)" />
        <path
           d="m 544,1381 v 2119 h 575 V 1403 q 0,-497 193,-746 194,-248 582,-248 465,0 735,297 271,297 271,810 v 1984 h 575 V 0 H 2900 V 538 Q 2691,219 2414,64 2138,-91 1772,-91 1169,-91 856,284 544,659 544,1381 Z m 1447,2203 z"
           id="DejaVuSans-75"
           transform="scale(0.015625)" />
        <path
           d="m 2906,1791 q 0,625 -258,968 -257,344 -723,344 -462,0 -720,-344 -258,-343 -258,-968 0,-622 258,-966 258,-344 720,-344 466,0 723,344 258,344 258,966 z M 3481,434 q 0,-893 -397,-1329 -396,-436 -1215,-436 -303,0 -572,45 -269,45 -522,139 v 559 q 253,-137 500,-202 247,-66 503,-66 566,0 847,295 281,295 281,892 V 616 Q 2728,306 2450,153 2172,0 1784,0 1141,0 747,490 353,981 353,1791 q 0,812 394,1302 394,491 1037,491 388,0 666,-153 278,-153 456,-462 v 531 h 575 z"
           id="DejaVuSans-67"
           transform="scale(0.015625)" />
      </defs>
      <use
         xlink:href="#DejaVuSans-4a"
         id="use282"
         x="0"
         y="0"
         width="100%"
         height="100%" />
      <use
         x="29.492188"
         xlink:href="#DejaVuSans-75"
         id="use284"
         y="0"
         width="100%"
         height="100%" />
      <use
         x="92.871094"
         xlink:href="#DejaVuSans-67"
         id="use286"
         y="0"
         width="100%"
         height="100%" />
    </g>
  </g>
  <g
     id="line2d_13"
     transform="translate(-9.862937,26.074519)">
    <g
       id="g294">
      <use
         style="stroke:#000000;stroke-width:0.8"
         x="60.352001"
         xlink:href="#m46648572ce"
         y="14.528364"
         id="use292"
         width="100%"
         height="100%" />
    </g>
  </g>
  <g
     id="text_14"
     transform="translate(-9.862937,26.074519)">
    <!-- Mahotas -->
    <g
       transform="matrix(0.1,0,0,-0.1,10.881687,18.327582)"
       id="g315">
      <defs
         id="defs299">
        <path
           d="M 3513,2113 V 0 h -575 v 2094 q 0,497 -194,743 -194,247 -581,247 -466,0 -735,-297 -269,-296 -269,-809 V 0 H 581 v 4863 h 578 V 2956 q 207,316 486,472 280,156 646,156 603,0 912,-373 310,-373 310,-1098 z"
           id="DejaVuSans-68"
           transform="scale(0.015625)" />
        <path
           d="m 1959,3097 q -462,0 -731,-361 -269,-361 -269,-989 0,-628 267,-989 268,-361 733,-361 460,0 728,362 269,363 269,988 0,622 -269,986 -268,364 -728,364 z m 0,487 q 750,0 1178,-488 429,-487 429,-1349 Q 3566,888 3137,398 2709,-91 1959,-91 1206,-91 779,398 353,888 353,1747 q 0,862 426,1349 427,488 1180,488 z"
           id="DejaVuSans-6f"
           transform="scale(0.015625)" />
      </defs>
      <use
         xlink:href="#DejaVuSans-4d"
         id="use301"
         x="0"
         y="0"
         width="100%"
         height="100%" />
      <use
         x="86.279297"
         xlink:href="#DejaVuSans-61"
         id="use303"
         y="0"
         width="100%"
         height="100%" />
      <use
         x="147.55859"
         xlink:href="#DejaVuSans-68"
         id="use305"
         y="0"
         width="100%"
         height="100%" />
      <use
         x="210.9375"
         xlink:href="#DejaVuSans-6f"
         id="use307"
         y="0"
         width="100%"
         height="100%" />
      <use
         x="272.11914"
         xlink:href="#DejaVuSans-74"
         id="use309"
         y="0"
         width="100%"
         height="100%" />
      <use
         x="311.32812"
         xlink:href="#DejaVuSans-61"
         id="use311"
         y="0"
         width="100%"
         height="100%" />
      <use
         x="372.60742"
         xlink:href="#DejaVuSans-73"
         id="use313"
         y="0"
         width="100%"
         height="100%" />
    </g>
  </g>
  <path
     clip-path="url(#pbf667b3321)"
     d="m 430.72914,89.095636 h 2.11902"
     style="fill:none;stroke:#cccccc;stroke-width:1.5;stroke-dasharray:1.5, 2.475;stroke-dashoffset:0"
     id="path320"
     transform="translate(-9.862937,26.074519)" />
  <use
     style="fill:#cccccc;stroke:#cccccc"
     x="430.72913"
     xlink:href="#m0bc4b15967"
     y="89.095634"
     id="use325"
     width="100%"
     height="100%"
     transform="translate(-9.862937,26.074519)" />
  <use
     style="fill:#cccccc;stroke:#cccccc"
     x="432.84818"
     xlink:href="#m0bc4b15967"
     y="89.095634"
     id="use327"
     width="100%"
     height="100%"
     transform="translate(-9.862937,26.074519)" />
  <path
     clip-path="url(#pbf667b3321)"
     d="m 394.28192,89.095636 h 8.4761 27.97112"
     style="fill:none;stroke:#1f77b4;stroke-width:1.5;stroke-linecap:square"
     id="path332"
     transform="translate(-9.862937,26.074519)" />
  <use
     style="fill:#1f77b4;stroke:#1f77b4"
     x="394.28192"
     xlink:href="#m343a137b4c"
     y="89.095634"
     id="use337"
     width="100%"
     height="100%"
     transform="translate(-9.862937,26.074519)" />
  <use
     style="fill:#1f77b4;stroke:#1f77b4"
     x="402.75803"
     xlink:href="#m343a137b4c"
     y="89.095634"
     id="use339"
     width="100%"
     height="100%"
     transform="translate(-9.862937,26.074519)" />
  <use
     style="fill:#1f77b4;stroke:#1f77b4"
     x="430.72913"
     xlink:href="#m343a137b4c"
     y="89.095634"
     id="use341"
     width="100%"
     height="100%"
     transform="translate(-9.862937,26.074519)" />
  <path
     clip-path="url(#pbf667b3321)"
     d="m 396.40095,70.453818 h 36.44721"
     style="fill:none;stroke:#cccccc;stroke-width:1.5;stroke-dasharray:1.5, 2.475;stroke-dashoffset:0"
     id="path346"
     transform="translate(-9.862937,26.074519)" />
  <use
     style="fill:#cccccc;stroke:#cccccc"
     x="396.40094"
     xlink:href="#m0bc4b15967"
     y="70.453819"
     id="use348"
     width="100%"
     height="100%"
     transform="translate(-9.862937,26.074519)" />
  <use
     style="fill:#cccccc;stroke:#cccccc"
     x="432.84818"
     xlink:href="#m0bc4b15967"
     y="70.453819"
     id="use350"
     width="100%"
     height="100%"
     transform="translate(-9.862937,26.074519)" />
  <path
     clip-path="url(#pbf667b3321)"
     d="m 359.74183,70.453818 h 12.99668 23.66244"
     style="fill:none;stroke:#ff7f0e;stroke-width:1.5;stroke-linecap:square"
     id="path355"
     transform="translate(-9.862937,26.074519)" />
  <use
     style="fill:#ff7f0e;stroke:#ff7f0e"
     x="359.74182"
     xlink:href="#m8bf20b00db"
     y="70.453819"
     id="use360"
     width="100%"
     height="100%"
     transform="translate(-9.862937,26.074519)" />
  <use
     style="fill:#ff7f0e;stroke:#ff7f0e"
     x="372.73853"
     xlink:href="#m8bf20b00db"
     y="70.453819"
     id="use362"
     width="100%"
     height="100%"
     transform="translate(-9.862937,26.074519)" />
  <use
     style="fill:#ff7f0e;stroke:#ff7f0e"
     x="396.40094"
     xlink:href="#m8bf20b00db"
     y="70.453819"
     id="use364"
     width="100%"
     height="100%"
     transform="translate(-9.862937,26.074519)" />
  <path
     clip-path="url(#pbf667b3321)"
     d="m 357.62281,51.812 h 75.22535"
     style="fill:none;stroke:#cccccc;stroke-width:1.5;stroke-dasharray:1.5, 2.475;stroke-dashoffset:0"
     id="path369"
     transform="translate(-9.862937,26.074519)" />
  <use
     style="fill:#cccccc;stroke:#cccccc"
     x="357.6228"
     xlink:href="#m0bc4b15967"
     y="51.812"
     id="use371"
     width="100%"
     height="100%"
     transform="translate(-9.862937,26.074519)" />
  <use
     style="fill:#cccccc;stroke:#cccccc"
     x="432.84818"
     xlink:href="#m0bc4b15967"
     y="51.812"
     id="use373"
     width="100%"
     height="100%"
     transform="translate(-9.862937,26.074519)" />
  <path
     clip-path="url(#pbf667b3321)"
     d="m 190.00801,51.812 h 126.8589 40.7559"
     style="fill:none;stroke:#2ca02c;stroke-width:1.5;stroke-linecap:square"
     id="path378"
     transform="translate(-9.862937,26.074519)" />
  <use
     style="fill:#2ca02c;stroke:#2ca02c"
     x="190.00801"
     xlink:href="#m2b15dc5f18"
     y="51.812"
     id="use383"
     width="100%"
     height="100%"
     transform="translate(-9.862937,26.074519)" />
  <use
     style="fill:#2ca02c;stroke:#2ca02c"
     x="316.86691"
     xlink:href="#m2b15dc5f18"
     y="51.812"
     id="use385"
     width="100%"
     height="100%"
     transform="translate(-9.862937,26.074519)" />
  <use
     style="fill:#2ca02c;stroke:#2ca02c"
     x="357.6228"
     xlink:href="#m2b15dc5f18"
     y="51.812"
     id="use387"
     width="100%"
     height="100%"
     transform="translate(-9.862937,26.074519)" />
  <path
     clip-path="url(#pbf667b3321-0)"
     d="m 357.62281,51.812 h 75.22535"
     style="fill:none;stroke:#cccccc;stroke-width:1.5;stroke-linecap:butt;stroke-linejoin:round;stroke-dasharray:1.5, 2.475;stroke-dashoffset:0"
     id="path369-4"
     transform="translate(-87.673122,-46.312)" />
  <use
     style="fill:#000000;stroke:#000000;stroke-linecap:butt;stroke-linejoin:round"
     x="357.6228"
     xlink:href="#m0bc4b15967"
     y="51.812"
     id="use371-0"
     width="100%"
     height="100%"
     transform="translate(-87.673122,-46.312)" />
  <use
     style="fill:#cccccc;stroke:#cccccc;stroke-linecap:butt;stroke-linejoin:round"
     x="432.84818"
     xlink:href="#m0bc4b15967"
     y="51.812"
     id="use373-3"
     width="100%"
     height="100%"
     transform="translate(-87.673122,-46.312)" />
  <path
     clip-path="url(#pbf667b3321-0)"
     d="m 190.00801,51.812 h 126.8589 40.7559"
     style="fill:#000000;stroke:#000000;stroke-width:1.5;stroke-linecap:square;stroke-linejoin:round"
     id="path378-9"
     transform="translate(-87.673122,-46.312)" />
  <use
     style="fill:#000000;stroke:#000000;stroke-linecap:butt;stroke-linejoin:round"
     x="190.00801"
     xlink:href="#m2b15dc5f18"
     y="51.812"
     id="use383-1"
     width="100%"
     height="100%"
     transform="translate(-87.673122,-46.312)" />
  <use
     style="fill:#000000;stroke:#000000;stroke-linecap:butt;stroke-linejoin:round"
     x="316.86691"
     xlink:href="#m2b15dc5f18"
     y="51.812"
     id="use385-9"
     width="100%"
     height="100%"
     transform="translate(-130.72463,-46.312)" />
  <use
     style="fill:#000000;stroke:#000000;stroke-linecap:butt;stroke-linejoin:round"
     x="357.6228"
     xlink:href="#m2b15dc5f18"
     y="51.812"
     id="use387-6"
     width="100%"
     height="100%"
     transform="translate(-87.673122,-46.312)" />
  <path
     clip-path="url(#pbf667b3321)"
     d="M 314.67726,33.170182 H 435.03782"
     style="fill:none;stroke:#cccccc;stroke-width:1.5;stroke-dasharray:1.5, 2.475;stroke-dashoffset:0"
     id="path392"
     transform="translate(-9.862937,26.074519)" />
  <use
     style="fill:#cccccc;stroke:#cccccc"
     x="314.67725"
     xlink:href="#m0bc4b15967"
     y="33.170181"
     id="use394"
     width="100%"
     height="100%"
     transform="translate(-9.862937,26.074519)" />
  <use
     style="fill:#cccccc;stroke:#cccccc"
     x="435.03781"
     xlink:href="#m0bc4b15967"
     y="33.170181"
     id="use396"
     width="100%"
     height="100%"
     transform="translate(-9.862937,26.074519)" />
  <path
     clip-path="url(#pbf667b3321)"
     d="M 86.811546,33.170182 H 112.593 314.67726"
     style="fill:none;stroke:#d62728;stroke-width:1.5;stroke-linecap:square"
     id="path401"
     transform="translate(-9.862937,26.074519)" />
  <use
     style="fill:#d62728;stroke:#d62728"
     x="86.811546"
     xlink:href="#m2269b1b24b"
     y="33.170181"
     id="use406"
     width="100%"
     height="100%"
     transform="translate(-9.862937,26.074519)" />
  <use
     style="fill:#d62728;stroke:#d62728"
     x="112.593"
     xlink:href="#m2269b1b24b"
     y="33.170181"
     id="use408"
     width="100%"
     height="100%"
     transform="translate(-9.862937,26.074519)" />
  <use
     style="fill:#d62728;stroke:#d62728"
     x="314.67725"
     xlink:href="#m2269b1b24b"
     y="33.170181"
     id="use410"
     width="100%"
     height="100%"
     transform="translate(-9.862937,26.074519)" />
  <path
     clip-path="url(#pbf667b3321)"
     d="M 204.98245,14.528364 H 435.03782"
     style="fill:none;stroke:#cccccc;stroke-width:1.5;stroke-dasharray:1.5, 2.475;stroke-dashoffset:0"
     id="path415"
     transform="translate(-9.862937,26.074519)" />
  <use
     style="fill:#cccccc;stroke:#cccccc"
     x="204.98245"
     xlink:href="#m0bc4b15967"
     y="14.528364"
     id="use417"
     width="100%"
     height="100%"
     transform="translate(-9.862937,26.074519)" />
  <use
     style="fill:#cccccc;stroke:#cccccc"
     x="435.03781"
     xlink:href="#m0bc4b15967"
     y="14.528364"
     id="use419"
     width="100%"
     height="100%"
     transform="translate(-9.862937,26.074519)" />
  <path
     clip-path="url(#pbf667b3321)"
     d="M 78.194182,14.528364 H 106.1653 204.98245"
     style="fill:none;stroke:#9467bd;stroke-width:1.5;stroke-linecap:square"
     id="path424"
     transform="translate(-9.862937,26.074519)" />
  <use
     style="fill:#9467bd;stroke:#9467bd"
     x="78.194183"
     xlink:href="#m59fb89c847"
     y="14.528364"
     id="use429"
     width="100%"
     height="100%"
     transform="translate(-9.862937,26.074519)" />
  <use
     style="fill:#9467bd;stroke:#9467bd"
     x="106.1653"
     xlink:href="#m59fb89c847"
     y="14.528364"
     id="use431"
     width="100%"
     height="100%"
     transform="translate(-9.862937,26.074519)" />
  <use
     style="fill:#9467bd;stroke:#9467bd"
     x="204.98245"
     xlink:href="#m59fb89c847"
     y="14.528364"
     id="use433"
     width="100%"
     height="100%"
     transform="translate(-9.862937,26.074519)" />
  <path
     d="M 50.489063,115.1854 V 36.874519"
     style="fill:none;stroke:#000000;stroke-width:0.781683;stroke-linecap:square;stroke-linejoin:miter"
     id="path438" />
  <path
     d="M 53.283416,124.89852 H 442.99859"
     style="fill:none;stroke:#000000;stroke-width:0.797129;stroke-linecap:square;stroke-linejoin:miter"
     id="path441"
     sodipodi:nodetypes="cc" />
  <defs
     id="defs449">
    <clipPath
       id="pbf667b3321">
      <rect
         height="82.024002"
         width="392.52802"
         x="60.352001"
         y="10.8"
         id="rect446" />
    </clipPath>
  </defs>
  <text
     xml:space="preserve"
     style="font-size:8px;line-height:1.25;font-family:sans-serif;-inkscape-font-specification:'sans-serif, Normal';stroke-width:0.75"
     x="78.578934"
     y="19.224405"
     id="text3976"><tspan
       sodipodi:role="line"
       id="tspan3974"
       style="font-size:8px;stroke-width:0.75"
       x="78.578934"
       y="19.224405">First commit</tspan></text>
  <text
     xml:space="preserve"
     style="font-size:8px;line-height:1.25;font-family:sans-serif;-inkscape-font-specification:'sans-serif, Normal';stroke-width:0.75;stroke-linecap:butt;stroke-linejoin:round"
     x="248.40971"
     y="19.224405"
     id="text3976-9"><tspan
       sodipodi:role="line"
       id="tspan3974-3"
       style="font-size:8px;stroke-width:0.75"
       x="248.40971"
       y="19.224405">Manuscript</tspan></text>
  <text
     xml:space="preserve"
     style="font-size:8px;line-height:1.25;font-family:sans-serif;-inkscape-font-specification:'sans-serif, Normal';stroke-width:0.75;stroke-linecap:butt;stroke-linejoin:round"
     x="163.26636"
     y="19.224405"
     id="text3976-3"><tspan
       sodipodi:role="line"
       id="tspan3974-8"
       style="font-size:8px;stroke-width:0.75"
       x="163.26636"
       y="19.224405">First release</tspan></text>
  <text
     xml:space="preserve"
     style="font-size:8px;line-height:1.25;font-family:sans-serif;-inkscape-font-specification:'sans-serif, Normal';stroke-width:0.75;stroke-linecap:butt;stroke-linejoin:round"
     x="319.0191"
     y="19.224405"
     id="text3976-0"><tspan
       sodipodi:role="line"
       id="tspan3974-5"
       style="font-size:8px;stroke-width:0.75"
       x="319.0191"
       y="19.224405">Latest release</tspan></text>
</svg>
